<svg xmlns="http://www.w3.org/2000/svg" viewBox="0 0 512 512">
  <rect width="512" height="512" rx="120" fill="#4f46e5"/>
  <rect x="112" y="96" width="288" height="320" rx="44" fill="#ffffff"/>
  <rect x="152" y="152" width="208" height="28" rx="14" fill="#c7d2fe"/>
  <rect x="152" y="214" width="208" height="28" rx="14" fill="#c7d2fe"/>
  <rect x="152" y="276" width="128" height="28" rx="14" fill="#c7d2fe"/>
  <path d="M328 320h24a24 24 0 0 1 24 24v24h-72v-24a24 24 0 0 1 24-24Z" fill="#818cf8"/>
  <path d="M248 328a56 56 0 1 1 0-112 56 56 0 0 1 0 112Zm0-32a24 24 0 1 0 0-48 24 24 0 0 0 0 48Z" fill="#4f46e5"/>
</svg>
